<?xml version="1.0"?><svg width="640" height="480" xmlns="http://www.w3.org/2000/svg">
 <title>Male Restroom Symbol -- White on Transparent Background</title>
 <g>
  <title>Layer 1</title>
  <g id="g2451">
   <path d="m242.011856,97.274788c-24.986359,0 -45.079636,21.763969 -45.079636,48.909889l0,115.69957c0,22.493927 30.822937,22.493927 30.822937,0l0,-105.794861l7.295959,0l0,289.68219c0,30.074036 41.044556,29.189056 41.044556,0l0,-168.157745l7.069611,0l0,168.157745c0,29.189056 41.270905,30.074036 41.270905,0l0,-289.68219l7.125763,0l0,105.794861c0,22.666473 30.662201,22.666473 30.606049,0l0,-115.007462c0,-25.031708 -18.200165,-49.550316 -45.633453,-49.550316l-74.52269,-0.051682z" id="path2459" fill="#000000"/>
   <g id="g2453">
    <path d="m278.904663,88.957336c19.485016,0 35.283142,-16.872978 35.283142,-37.684689c0,-20.810692 -15.798126,-37.682755 -35.283142,-37.682755c-19.48584,0 -35.282257,16.872063 -35.282257,37.682755c0,20.81171 15.796417,37.684689 35.282257,37.684689z" id="path2455" fill="#000000"/>
    <path d="m278.904663,51.272648" id="path2457" fill="#000000"/>
   </g>
  </g>
 </g>
</svg>